<?xml version="1.0"?>
<svg xmlns="http://www.w3.org/2000/svg" xmlns:xlink="http://www.w3.org/1999/xlink" version="1.1" viewBox="0 0 192 192" width="50px" height="50px"><g fill="none" fill-rule="nonzero" stroke="none" stroke-width="1" stroke-linecap="butt" stroke-linejoin="miter" stroke-miterlimit="10" stroke-dasharray="" stroke-dashoffset="0" font-family="none" font-weight="none" font-size="none" text-anchor="none" style="mix-blend-mode: normal"><path d="M0,192v-192h192v192z" fill="none"/><g fill="#000000"><g id="surface1"><path d="M95.52,12.675c-18.015,0.405 -29.43,7.785 -34.335,19.065c-4.68,10.755 -3.66,24.24 -0.3,38.34c-1.77,2.1 -3.255,4.935 -2.88,9.345v0.09l0.015,0.105c0.645,4.68 1.935,8.01 3.72,10.365c0.9,1.155 2.175,1.2 3.285,1.83c0.645,4.14 1.89,8.25 3.6,11.625c0.975,1.935 2.01,3.63 3.075,5.055c0.465,0.645 1.11,1.05 1.62,1.59c0.045,4.905 0.255,8.745 -0.315,13.695c-1.125,2.985 -3.975,5.43 -8.655,7.8c-4.815,2.43 -11.13,4.59 -17.535,7.365c-6.405,2.76 -12.945,6.165 -18.165,11.46c-5.22,5.295 -8.91,12.615 -9.45,22.185l-0.21,4.05h154.035l-0.225,-4.05c-0.54,-9.57 -4.2,-16.875 -9.39,-22.17c-5.19,-5.31 -11.715,-8.715 -18.135,-11.475c-6.405,-2.775 -12.75,-4.935 -17.64,-7.38c-4.725,-2.355 -7.71,-4.83 -9.015,-7.83c-0.285,-5.04 -0.315,-8.955 -0.315,-13.695c0.48,-0.54 1.14,-0.945 1.59,-1.575c1.035,-1.44 2.025,-3.15 2.97,-5.055c1.665,-3.375 2.94,-7.455 3.72,-11.505c1.23,-0.63 2.61,-0.675 3.57,-1.92c1.845,-2.43 3.03,-5.82 3.465,-10.53v-0.03c0.345,-4.065 -0.915,-6.975 -2.745,-9.195c2.01,-6.15 4.365,-15.945 3.6,-26.025c-0.405,-5.52 -1.785,-11.055 -5.055,-15.63c-3,-4.17 -7.86,-7.125 -13.965,-8.4c-4.08,-5.355 -11.415,-7.5 -19.83,-7.5zM95.625,20.355c7.74,0 12.735,2.25 14.34,4.995l0.93,1.62l1.845,0.255c5.28,0.735 8.28,2.835 10.425,5.82c2.145,2.985 3.315,7.14 3.66,11.745c0.705,9.225 -1.965,20.04 -3.72,24.96l-1.14,3.21l3.03,1.515c-0.51,-0.255 1.26,0.885 0.96,4.305c-0.33,3.72 -1.26,5.685 -1.905,6.54c-0.645,0.84 -0.915,0.705 -0.795,0.705h-3.315l-0.48,3.285c-0.495,3.465 -1.905,7.515 -3.48,10.71c-0.78,1.59 -1.62,2.985 -2.325,3.96c-0.69,0.975 -1.44,1.545 -1.125,1.365l-1.935,1.095v2.235c0,3.855 0.045,7.245 0.165,10.83l-14.76,8.19l-14.94,-8.295c0.12,-3.705 -0.045,-6.99 -0.045,-10.725v-2.235l-1.935,-1.095c0.3,0.15 -0.48,-0.435 -1.215,-1.425c-0.735,-0.975 -1.59,-2.355 -2.385,-3.945c-1.605,-3.165 -2.985,-7.155 -3.3,-10.485l-0.345,-3.465h-3.48c0.57,0 0.195,0.21 -0.495,-0.705c-0.705,-0.915 -1.665,-2.985 -2.19,-6.615c-0.18,-3.105 1.68,-4.68 1.35,-4.47l2.265,-1.515l-0.66,-2.625c-3.555,-13.995 -4.14,-26.7 -0.405,-35.295c3.735,-8.595 11.31,-14.07 27.405,-14.445zM79.815,127.5l9.54,5.295l-8.76,10.89l-7.14,-8.67c2.715,-1.995 4.965,-4.425 6.36,-7.515zM111.915,127.635c1.515,3.06 3.885,5.4 6.645,7.365l-7.155,8.685l-8.76,-10.89zM66.72,138.93l10.965,13.275c0.72,0.885 1.83,1.41 2.985,1.395c1.155,0 2.235,-0.54 2.97,-1.44l7.53,-9.36l2.91,2.355c0,0 -6.735,11.565 -8.67,23.805h-57.63c1.065,-5.475 3.09,-9.855 6.345,-13.17c4.08,-4.155 9.705,-7.2 15.735,-9.81c5.655,-2.43 11.565,-4.5 16.86,-7.05zM125.28,138.93c5.34,2.55 11.31,4.62 16.965,7.05c6.015,2.61 11.61,5.655 15.675,9.795c3.24,3.315 5.25,7.71 6.3,13.185h-57.6c-1.92,-12.45 -8.7,-23.805 -8.7,-23.805l2.91,-2.355l7.53,9.36c0.735,0.9 1.815,1.44 2.97,1.44c1.155,0.015 2.265,-0.51 2.985,-1.395z"/></g></g></g></svg>
